<svg xmlns="http://www.w3.org/2000/svg" viewBox="0 0 512 512" fill="none">
  <defs>
    <linearGradient id="grad1" x1="0%" y1="0%" x2="100%" y2="100%">
      <stop offset="0%" style="stop-color:#8B5CF6;stop-opacity:1" />
      <stop offset="50%" style="stop-color:#D946EF;stop-opacity:1" />
      <stop offset="100%" style="stop-color:#F59E0B;stop-opacity:1" />
    </linearGradient>
    <linearGradient id="grad2" x1="0%" y1="0%" x2="100%" y2="0%">
      <stop offset="0%" style="stop-color:#8B5CF6;stop-opacity:1" />
      <stop offset="100%" style="stop-color:#D946EF;stop-opacity:1" />
    </linearGradient>
  </defs>
  <!-- Background circle -->
  <circle cx="256" cy="256" r="240" fill="url(#grad1)"/>
  <!-- Camera body -->
  <rect x="120" y="180" width="272" height="180" rx="24" fill="white"/>
  <!-- Camera lens outer -->
  <circle cx="256" cy="270" r="70" fill="#1F2937"/>
  <!-- Camera lens inner -->
  <circle cx="256" cy="270" r="50" fill="url(#grad2)"/>
  <!-- Camera lens highlight -->
  <circle cx="236" cy="250" r="15" fill="white" opacity="0.6"/>
  <!-- Camera flash -->
  <rect x="340" y="200" width="32" height="20" rx="4" fill="#1F2937"/>
  <!-- AI sparkles -->
  <path d="M420 120 L430 140 L450 150 L430 160 L420 180 L410 160 L390 150 L410 140 Z" fill="white"/>
  <path d="M100 350 L107 365 L122 372 L107 379 L100 394 L93 379 L78 372 L93 365 Z" fill="white"/>
  <path d="M380 320 L385 330 L395 335 L385 340 L380 350 L375 340 L365 335 L375 330 Z" fill="white" opacity="0.8"/>
</svg>
